<svg width="156" height="260" viewBox="0 0 156 260" fill="none" xmlns="http://www.w3.org/2000/svg">
<circle cx="91.9031" cy="55.3184" r="47.5" transform="rotate(5.56572 91.9031 55.3184)" stroke="black" stroke-width="5"/>
<path d="M55.9717 71.395C72.0747 87.3071 124.346 84.4808 129.706 69.3309" stroke="black" stroke-width="3"/>
<circle cx="66.5877" cy="52.2609" r="4" transform="rotate(7.20552 66.5877 52.2609)" stroke="black" stroke-width="2"/>
<circle cx="117.071" cy="51.5877" r="4" transform="rotate(7.20552 117.071 51.5877)" stroke="black" stroke-width="2"/>
<line x1="31.1399" y1="93.5774" x2="137.14" y2="120.577" stroke="black" stroke-width="5"/>
<path d="M35.5789 93C8.02283 155 9.52281 215.5 40.2786 256" stroke="black" stroke-width="5"/>
<path d="M133.579 119C111.023 180.5 107.523 211.5 131.023 258" stroke="black" stroke-width="5"/>
<line x1="40.5228" y1="253.5" x2="129.523" y2="253.5" stroke="black" stroke-width="5"/>
<line x1="135.5" y1="118" x2="135.5" y2="192" stroke="black" stroke-width="5"/>
<line x1="33.3717" y1="96.7906" x2="2.37171" y2="189.791" stroke="black" stroke-width="5"/>
<line x1="2.56118" y1="187.539" x2="131.561" y2="164.539" stroke="black" stroke-width="5"/>
<line x1="128.97" y1="163.461" x2="153.97" y2="195.461" stroke="black" stroke-width="5"/>
<line x1="135.832" y1="192.244" x2="100.832" y2="131.244" stroke="black" stroke-width="5"/>
<line x1="100.83" y1="130.985" x2="71.8301" y2="125.985" stroke="black" stroke-width="2"/>
<line x1="100.132" y1="131.991" x2="85.1322" y2="133.991" stroke="black" stroke-width="2"/>
<line x1="101.21" y1="133.978" x2="87.2095" y2="136.978" stroke="black" stroke-width="2"/>
<line x1="102.217" y1="136.976" x2="93.2169" y2="138.976" stroke="black" stroke-width="2"/>
<line x1="97.6132" y1="131.08" x2="94.6133" y2="129.08" stroke="black" stroke-width="5"/>
</svg>
