<svg xmlns="http://www.w3.org/2000/svg">
    <symbol id="head" viewBox="0 0 512 512">
        <g>
          <path d="M428.874,63.242C388.091,22.46,333.868,0,276.194,0c-57.675,0-111.898,22.46-152.679,63.242
            c-40.362,40.362-62.777,93.883-63.234,150.892l-39.292,78.584c-1.756,3.512-0.763,7.784,2.604,9.804l36.18,21.858V440.36
            c0,4.15,3.866,8.016,8.016,8.016h72.141v56.11c0,4.15,3.365,7.515,7.515,7.515s7.515-3.365,7.515-7.515V440.36
            c0-4.15-2.864-7.014-7.014-7.014H74.801V320.125c0-2.639-1.134-5.086-3.398-6.444l-33.986-20.467l37.029-73.932
            c0.522-1.044,0.825-2.193,0.825-3.361C75.27,105.149,165.405,15.029,276.179,15.029s200.9,90.12,200.9,200.892
            c0,62.247-28.41,119.965-77.516,158.356c-1.822,1.424-3.133,3.608-3.133,5.921v124.287c0,4.15,3.365,7.515,7.515,7.515
            s7.515-3.365,7.515-7.515V383.824c51.1-41.246,80.407-102.228,80.407-167.902C491.865,158.247,469.655,104.024,428.874,63.242z"/>
          <path d="M310.901,75.133c-2.329-3.436-6.984-4.333-10.42-2.006c-3.436,2.329-4.333,7.001-2.005,10.436
            c6.726,9.926,10.282,21.522,10.282,33.534c0,27.717-19.674,52.302-46.691,58.457c-3.42,0.779-5.912,3.819-5.912,7.327v31.662
            c0,4.123-3.392,7.477-7.515,7.477s-7.515-3.354-7.515-7.477v-44.975c0-4.123,3.458-7.477,7.581-7.477
            c24.81,0,45.046-20.184,45.046-44.994s-20.158-44.994-44.968-44.994c-24.81,0-44.981,20.184-44.981,44.994
            c0,4.123-3.348,7.477-7.471,7.477s-7.474-3.355-7.474-7.477c0-33.056,26.893-59.948,59.949-59.948
            c9.457,0,18.511,2.148,26.906,6.384c3.703,1.87,8.224,0.382,10.095-3.323c1.87-3.705,0.382-8.224-3.323-10.095
            c-10.515-5.305-21.845-7.996-33.676-7.996c-41.343,0-74.977,33.635-74.977,74.977c0,12.41,10.097,22.506,22.506,22.506
            s22.506-10.097,22.506-22.506c0-16.522,13.442-29.964,29.964-29.964c16.522,0,29.965,13.442,29.965,29.964
            s-13.545,29.965-30.068,29.965c-12.41,0-22.61,10.097-22.61,22.506v44.975c0,12.41,10.134,22.506,22.544,22.506
            c12.41,0,22.544-10.096,22.544-22.506V188.62c14.027-4.419,26.587-12.954,35.883-24.452c10.739-13.283,16.687-30,16.687-47.071
            C323.753,102.068,319.32,87.557,310.901,75.133z"/>
          <path d="M248.81,244.508c-12.41,0-22.506,10.097-22.506,22.506s10.097,22.506,22.506,22.506c12.41,0,22.506-10.097,22.506-22.506
            S261.219,244.508,248.81,244.508z M248.81,274.491c-4.123,0-7.477-3.355-7.477-7.477c0-4.122,3.355-7.477,7.477-7.477
            c4.122,0,7.477,3.355,7.477,7.477C256.287,271.137,252.932,274.491,248.81,274.491z"/>
          <path d="M392.144,117.077c-34.143,0-61.899,27.777-61.899,61.92c0,10.81,8.805,19.604,19.615,19.604s19.61-8.794,19.61-19.604
            c0-12.521,10.193-22.709,22.715-22.709c12.522,0,22.71,10.188,22.71,22.71s-10.288,22.71-22.811,22.71
            c-10.81,0-19.705,8.794-19.705,19.604v36.27c0,10.81,8.728,19.604,19.538,19.604s19.538-8.794,19.538-19.604v-19.851
            c11.021-3.735,21.278-10.646,28.727-19.86c8.869-10.97,13.837-24.776,13.837-38.875
            C454.022,144.854,426.287,117.077,392.144,117.077z M402.442,224.722c-3.42,0.779-6.012,3.819-6.012,7.327v25.534
            c0,2.523-1.986,4.575-4.509,4.575s-4.509-2.052-4.509-4.575v-36.27c0-2.523,2.152-4.575,4.675-4.575
            c20.81,0,37.79-16.93,37.79-37.74s-16.905-37.74-37.715-37.74s-37.717,16.929-37.717,37.739c0,2.523-2.052,4.575-4.575,4.575
            c-2.523,0-4.575-2.052-4.575-4.575c0-25.856,21.035-46.891,46.891-46.891s46.891,21.035,46.891,46.891
            C439.078,200.678,423.573,219.909,402.442,224.722z"/>
          <path d="M392.186,280.294c-10.81,0-19.604,8.794-19.604,19.604s8.794,19.604,19.604,19.604c10.81,0,19.604-8.794,19.604-19.604
            S402.996,280.294,392.186,280.294z M392.186,304.474c-2.523,0-4.575-2.052-4.575-4.575c0-2.523,2.052-4.575,4.575-4.575
            c2.523,0,4.575,2.052,4.575,4.575C396.761,302.422,394.709,304.474,392.186,304.474z"/>
          <path d="M149.6,197.356c-31.577,0-57.266,25.689-57.266,57.266c0,10.24,8.33,18.57,18.57,18.57s18.57-8.33,18.57-18.57
            c0-11.097,9.028-20.124,20.124-20.124s20.124,9.028,20.124,20.124s-9.088,20.124-20.184,20.124c-10.24,0-18.63,8.33-18.63,18.57
            v33.168c0,10.24,8.296,18.57,18.536,18.57c10.24,0,18.536-8.33,18.536-18.57v-17.693c23.045-7.853,38.789-29.738,38.789-54.17
            C206.771,223.046,181.177,197.356,149.6,197.356z M158.892,295.808c-3.42,0.779-5.94,3.82-5.94,7.327v23.35
            c0,1.953-1.554,3.541-3.507,3.541s-3.507-1.588-3.507-3.541v-33.168c0-1.952,1.648-3.541,3.601-3.541
            c19.384,0,35.184-15.77,35.184-35.154s-15.755-35.154-35.139-35.154s-35.147,15.77-35.147,35.154c0,1.953-1.585,3.541-3.537,3.541
            c-1.952,0-3.539-1.588-3.539-3.541c0-23.289,18.948-42.237,42.237-42.237c23.288,0,42.189,18.947,42.189,42.237
            C191.789,274.15,177.927,291.471,158.892,295.808z"/>
          <path d="M149.6,346.609c-10.24,0-18.57,8.33-18.57,18.57s8.33,18.57,18.57,18.57s18.57-8.33,18.57-18.57
            S159.84,346.609,149.6,346.609z M149.6,368.72c-1.953,0-3.541-1.588-3.541-3.541s1.588-3.541,3.541-3.541s3.541,1.588,3.541,3.541
            S151.553,368.72,149.6,368.72z"/>
        </g>
    </symbol>
    <symbol id="sitting" viewBox="0 0 512 512">
        <g>
          <path d="M456.391,312.611H233.69L118.976,197.897c-15.431-15.43-40.538-15.429-55.97,0c-2.894,2.895-2.894,7.734,0,10.628
          l148.977,148.978c1.409,1.409,3.32,2.2,5.313,2.2h271.158c4.15,0,7.515-3.364,7.515-7.515
          C495.969,330.365,478.214,312.611,456.391,312.611z M220.409,344.673L79.779,204.043c9.229-4.73,20.852-3.236,28.571,4.482
          L225.265,325.44c1.409,1.409,3.32,2.2,5.313,2.2h225.813c10.916,0,20.19,7.161,23.372,17.033H220.409z"/>
          <path d="M432.344,400.783H223.937c-4.15,0-7.515,3.364-7.515,7.515v32.063c0,4.151,3.365,7.515,7.   515,7.515h208.407
          c4.15,0,7.515-3.364,7.515-7.515v-32.063C439.859,404.146,436.494,400.783,432.344,400.783z M424.83,432.845H231.452v-17.033
          H424.83V432.845z"/>
          <path d="M504.485,368.72H211.001L35.479,194.556c-2.938-2.915-7.68-2.906-10.607,0.021l-22.671,22.67
          c-2.927,2.928-2.936,7.67-0.02,10.608L184.36,411.395v93.091c0,4.151,3.365,7.515,7.515,7.515h32.063
          c4.15,0,7.515-3.364,7.515-7.515v-24.548H424.83v24.548c0,4.151,3.365,7.515,7.515,7.515h32.063c4.15,0,7.515-3.364,7.515-7.515
          v-88.673h32.564c4.15,0,7.515-3.364,7.515-7.515v-32.063C512,372.084,508.635,368.72,504.485,368.72z M496.97,400.783h-32.564
          c-4.15,0-7.515,3.364-7.515,7.515v88.673h-17.033v-24.548c0-4.151-3.365-7.515-7.515-7.515H223.937
          c-4.15,0-7.515,3.364-7.515,7.515v24.548h-17.033v-88.673c0-1.983-0.784-3.887-2.181-5.293L18.122,222.582l12.085-12.085
          l172.406,171.072c1.408,1.397,3.31,2.18,5.293,2.18H496.97V400.783z"/>
          <path d="M488.454,24.047h-65.53C419.544,10.259,407.081,0,392.266,0c-14.815,0-27.278,10.259-30.658,24.047h-65.53
          c-4.15,0-7.515,3.364-7.515,7.515v248.485c0,4.151,3.365,7.515,7.515,7.515h192.376c4.15,0,7.515-3.364,7.515-7.515V31.562
          C495.969,27.411,492.604,24.047,488.454,24.047z M359.702,39.076h8.517c4.15,0,7.515-3.364,7.515-7.515
          c0-9.116,7.417-16.532,16.532-16.532c9.116,0,16.532,7.417,16.532,16.532c0,4.151,3.365,7.515,7.515,7.515h8.517V56.11h-65.127
          V39.076z M480.939,272.532H303.593V39.076h9.018v208.908c0,4.151,3.365,7.515,7.515,7.515h144.282c4.15,0,7.515-3.364,7.515-7.515
          v-99.945c0-4.151-3.365-7.515-7.515-7.515s-7.515,3.364-7.515,7.515v92.431H327.64V39.076h17.033v24.548
          c0,4.151,3.365,7.515,7.515,7.515h80.157c4.15,0,7.515-3.364,7.515-7.515V39.076h17.033v73.143c0,4.151,3.365,7.515,7.515,7.515
          s7.515-3.364,7.515-7.515V39.076h9.018V272.532z"/>
          <path d="M424.329,208.407h-64.125c-4.15,0-7.515,3.364-7.515,7.515c0,4.151,3.365,7.515,7.515,7.515h64.125
          c4.15,0,7.515-3.364,7.515-7.515C431.843,211.771,428.479,208.407,424.329,208.407z"/>
          <path d="M424.329,176.344h-64.125c-4.15,0-7.515,3.364-7.515,7.515c0,4.151,3.365,7.515,7.515,7.515h64.125
          c4.15,0,7.515-3.364,7.515-7.515C431.843,179.708,428.479,176.344,424.329,176.344z"/>
          <path d="M424.329,144.282h-64.125c-4.15,0-7.515,3.364-7.515,7.515c0,4.151,3.365,7.515,7.515,7.515h64.125
          c4.15,0,7.515-3.364,7.515-7.515C431.843,147.645,428.479,144.282,424.329,144.282z"/>
          <path d="M393.268,24.047h-1.002c-4.15,0-7.515,3.364-7.515,7.515s3.365,7.515,7.515,7.515h1.002c4.15,0,7.515-3.364,7.515-7.515
          S397.418,24.047,393.268,24.047z"/>
          <path d="M424.329,80.157h-64.125c-4.15,0-7.515,3.364-7.515,7.515v40.078c0,4.151,3.365,7.515,7.515,7.515h64.125
          c4.15,0,7.515-3.364,7.515-7.515V87.671C431.843,83.52,428.479,80.157,424.329,80.157z M416.814,120.235h-49.096V95.186h49.096
          V120.235z"/>
          <path d="M270.737,84.311l-15.238-30.476V31.562c0-4.151-3.365-7.515-7.515-7.515c-4.15,0-7.515,3.364-7.515,7.515v22.273
          l-15.238,30.476c-0.518,1.035-0.794,2.202-0.794,3.361V240.47h-9.018v-48.595c0-4.151-3.365-7.515-7.515-7.515
          s-7.515,3.364-7.515,7.515v56.11c0,4.151,3.365,7.515,7.515,7.515h16.532v16.532c0,8.564,6.967,15.53,15.53,15.53H256
          c8.564,0,15.53-6.967,15.53-15.53V87.671C271.53,86.513,271.255,85.346,270.737,84.311z M247.984,72.412l3.873,7.744h-7.744
          L247.984,72.412z M256.501,272.031c0,0.276-0.224,0.501-0.501,0.501h-16.031c-0.277,0-0.501-0.225-0.501-0.501v-48.595h17.033
          V272.031z M256.501,208.407h-17.033V95.186h17.033V208.407z"/>
        </g>
    </symbol>
    <symbol id="hands" viewBox="0 0 512 512">
        <g>
          <path d="M167.327,377.133v-48.992c0-12.983-10.563-23.546-23.546-23.546c-3.003,0-5.873,0.571-8.517,1.601v-18.133
          c0-12.983-10.563-23.546-23.546-23.546c-3.003,0-5.873,0.571-8.517,1.601V256c0-12.983-10.563-23.546-23.546-23.546
          S56.11,243.017,56.11,256v9.673c-2.306-0.907-4.787-1.461-7.388-1.583c-6.492-0.306-12.678,1.995-17.38,6.482
          c-4.636,4.423-7.294,10.633-7.294,17.038v16.484c0,4.151,3.365,7.515,7.515,7.515s7.515-3.364,7.515-7.515V287.61
          c0-4.804,4.138-8.746,8.938-8.506c4.464,0.209,8.096,4.229,8.096,8.958v48.797c-7.893,9.182-7.571,23.073,1.076,31.852
          l42.538,43.182c3.077,3.122,8.31,2.894,11.123-0.46c2.452-2.926,2.259-7.371-0.416-10.088l-42.538-43.181
          c-3.295-3.346-3.255-8.749,0.09-12.044c3.3-3.252,8.797-3.207,12.044,0.091l41.299,41.925c1.318,2.172,3.697,3.629,6.424,3.629
          h32.063c31.215,0,56.611,25.396,56.611,56.611v56.11c0,4.151,3.365,7.515,7.515,7.515s7.515-3.364,7.515-7.515v-56.11
          C231.453,411.412,203.311,380.901,167.327,377.133z M88.173,288.063v45.349c-4.02-3.056-8.895-4.73-14.035-4.768
          c-1.01-0.006-2.01,0.058-2.998,0.175v-40.756V256c0-4.696,3.82-8.517,8.517-8.517s8.517,3.82,8.517,8.517V288.063z
          M120.235,328.141v37.469l-17.064-17.323c0.016-0.201,0.031-0.404,0.031-0.609v-2.004v-57.613c0-4.695,3.82-8.516,8.517-8.516
          s8.517,3.82,8.517,8.517V328.141z M152.298,376.736h-17.033v-1.002v-47.593c0-4.696,3.82-8.517,8.517-8.517
          s8.517,3.82,8.517,8.517V376.736z"/>
          <path d="M155.965,474.186l-47.475-31.65l-69.414-69.414v-28.951c0-4.151-3.365-7.515-7.515-7.515s-7.515,3.364-7.515,7.515v32.063
          c0,1.993,0.792,3.904,2.201,5.314L98.39,453.69c0.35,0.35,0.733,0.664,1.145,0.939l44.747,29.831v20.025
          c0,4.151,3.365,7.515,7.515,7.515c4.15,0,7.515-3.364,7.515-7.515v-24.047C159.312,477.925,158.056,475.579,155.965,474.186z"/>
          <path d="M480.659,270.571c-4.702-4.487-10.877-6.798-17.38-6.481c-2.601,0.122-5.083,0.676-7.388,1.582V256
          c0-12.983-10.563-23.546-23.546-23.546S408.799,243.017,408.799,256v10.118c-2.643-1.03-5.514-1.601-8.517-1.601
          c-12.983,0-23.546,10.563-23.546,23.546v18.133c-2.643-1.03-5.514-1.601-8.517-1.601c-12.983,0-23.546,10.563-23.546,23.546
          v48.992c-35.983,3.768-64.125,34.28-64.125,71.243v56.11c0,4.151,3.365,7.515,7.515,7.515s7.515-3.364,7.515-7.515v-56.11
          c0-31.215,25.396-56.611,56.611-56.611h32.063c2.726,0,5.107-1.457,6.424-3.63l41.299-41.925c3.259-3.308,8.736-3.349,12.043-0.09
          c3.346,3.295,3.386,8.699,0.091,12.044l-42.538,43.182c-2.68,2.72-2.862,7.156-0.416,10.088c2.805,3.361,8.052,3.577,11.123,0.46
          l42.539-43.183c8.646-8.778,8.969-22.669,1.076-31.851v-48.797c0-4.73,3.632-8.749,8.095-8.959c4.8-0.192,8.938,3.673,8.938,8.507
          v56.562v28.951l-69.414,69.414l-47.476,31.65c-2.09,1.394-3.347,3.739-3.347,6.252v24.047c0,4.151,3.365,7.515,7.515,7.515
          c4.15,0,7.515-3.364,7.515-7.515V484.46l44.747-29.831c0.412-0.274,0.796-0.589,1.145-0.939l72.141-72.141
          c1.41-1.41,2.201-3.32,2.201-5.314v-32.063V287.61C487.953,281.204,485.295,274.994,480.659,270.571z M376.736,375.734v1.002
          h-17.033v-48.595c0-4.696,3.82-8.517,8.517-8.517s8.517,3.82,8.517,8.517V375.734z M391.766,365.611v-37.47v-40.078
          c0-4.696,3.82-8.517,8.517-8.517s8.517,3.82,8.517,8.517v57.613v2.004c0,0.206,0.015,0.408,0.031,0.609L391.766,365.611z
          M440.862,288.063v40.765c-0.93-0.11-1.867-0.185-2.817-0.185c-0.06,0-0.121,0-0.181,0.001c-5.14,0.038-10.016,1.712-14.035,4.768
          v-45.349V256c0-4.696,3.82-8.517,8.517-8.517s8.517,3.82,8.517,8.517V288.063z"/>
          <path d="M304.094,195.1h-16.031c-4.15,0-7.515,3.364-7.515,7.515v40.579h-17.033v-57.112h0.501c4.15,0,7.515-3.364,7.515-7.515
          s-3.365-7.515-7.515-7.515h-16.031c-4.15,0-7.515,3.364-7.515,7.515s3.365,7.515,7.515,7.515h0.501v57.112h-17.033v-40.579
          c0-4.151-3.365-7.515-7.515-7.515h-16.031c-4.15,0-7.515,3.364-7.515,7.515c0,4.151,3.365,7.515,7.515,7.515h8.517v40.579
          c0,4.151,3.365,7.515,7.515,7.515h24.548v33.065h-0.501c-4.15,0-7.515,3.364-7.515,7.515c0,4.151,3.365,7.515,7.515,7.515h16.031
          c4.15,0,7.515-3.364,7.515-7.515c0-4.151-3.365-7.515-7.515-7.515h-0.501v-33.065h24.548c4.15,0,7.515-3.364,7.515-7.515v-40.579
          h8.517c4.15,0,7.515-3.364,7.515-7.515C311.609,198.464,308.245,195.1,304.094,195.1z"/>
          <path d="M192.008,33.778l-3.068-7.405c-1.588-3.834-5.985-5.653-9.818-4.067c-3.834,1.588-5.655,5.985-4.067,9.818l3.068,7.405
          c1.199,2.895,3.997,4.641,6.946,4.641c0.959,0,1.933-0.185,2.873-0.574C191.775,42.008,193.596,37.611,192.008,33.778z"/>
          <path d="M204.662,64.326l-0.384-0.926c-1.589-3.835-5.985-5.653-9.819-4.066c-3.836,1.589-5.655,5.985-4.066,9.819l0.384,0.926
          c1.199,2.894,3.997,4.64,6.946,4.64c0.959,0,1.934-0.185,2.874-0.574C204.431,72.556,206.25,68.159,204.662,64.326z"/>
          <path d="M118.173,142.683l-0.926-0.384c-3.833-1.586-8.229,0.23-9.819,4.066c-1.588,3.833,0.231,8.23,4.066,9.819l0.926,0.384
          c0.941,0.39,1.915,0.574,2.874,0.574c2.948,0,5.746-1.746,6.946-4.64C123.827,148.668,122.008,144.272,118.173,142.683z"/>
          <path d="M87.624,130.028l-7.405-3.068c-3.832-1.593-8.23,0.232-9.818,4.067c-1.588,3.836,0.233,8.23,4.067,9.818l7.405,3.068
          c0.94,0.391,1.915,0.574,2.873,0.574c2.949,0,5.747-1.747,6.946-4.641C93.279,136.012,91.458,131.616,87.624,130.028z"/>
          <path d="M441.6,131.027c-1.588-3.834-5.986-5.654-9.818-4.067l-7.405,3.068c-3.834,1.588-5.655,5.984-4.067,9.818
          c1.199,2.895,3.997,4.641,6.946,4.641c0.959,0,1.933-0.185,2.873-0.574l7.405-3.068
          C441.368,139.257,443.188,134.861,441.6,131.027z"/>
          <path d="M317.543,59.333c-3.832-1.586-8.23,0.23-9.819,4.066l-0.384,0.926c-1.588,3.833,0.231,8.23,4.066,9.819
          c0.941,0.39,1.915,0.574,2.874,0.574c2.948,0,5.746-1.746,6.946-4.64l0.384-0.926C323.197,65.319,321.377,60.922,317.543,59.333z"/>
          <path d="M332.879,22.306c-3.833-1.592-8.23,0.232-9.818,4.067l-3.068,7.405c-1.588,3.833,0.232,8.23,4.067,9.818
          c0.94,0.391,1.915,0.574,2.873,0.574c2.949,0,5.746-1.746,6.946-4.641l3.068-7.406C338.534,28.29,336.713,23.894,332.879,22.306z"/>
          <path d="M256,0c-4.15,0-7.515,3.364-7.515,7.515v16.031c0,4.151,3.365,7.515,7.515,7.515s7.515-3.364,7.515-7.515V7.515
          C263.515,3.364,260.151,0,256,0z"/>
          <path d="M256,48.094c-4.15,0-7.515,3.364-7.515,7.515V71.64c0,4.151,3.365,7.515,7.515,7.515s7.515-3.364,7.515-7.515V55.609
          C263.515,51.458,260.151,48.094,256,48.094z"/>
          <path d="M125.283,74.578l-11.335-11.335c-2.935-2.934-7.693-2.934-10.627,0c-2.935,2.936-2.935,7.693,0,10.628l11.335,11.335
          c1.467,1.467,3.391,2.2,5.313,2.2c1.923,0,3.846-0.733,5.313-2.2C128.218,82.27,128.218,77.512,125.283,74.578z"/>
          <path d="M159.292,108.585L147.955,97.25c-2.935-2.934-7.693-2.935-10.627,0.001c-2.935,2.935-2.935,7.693,0,10.627l11.336,11.335
          c1.467,1.467,3.391,2.2,5.313,2.2s3.846-0.733,5.313-2.201C162.226,116.277,162.226,111.519,159.292,108.585z"/>
          <path d="M63.625,208.407H47.593c-4.15,0-7.515,3.364-7.515,7.515c0,4.151,3.365,7.515,7.515,7.515h16.031
          c4.15,0,7.515-3.364,7.515-7.515C71.139,211.771,67.775,208.407,63.625,208.407z"/>
          <path d="M111.719,208.407H95.687c-4.15,0-7.515,3.364-7.515,7.515c0,4.151,3.365,7.515,7.515,7.515h16.031
          c4.15,0,7.515-3.364,7.515-7.515C119.233,211.771,115.869,208.407,111.719,208.407z"/>
          <path d="M464.408,208.407h-16.031c-4.15,0-7.515,3.364-7.515,7.515c0,4.151,3.365,7.515,7.515,7.515h16.031
          c4.15,0,7.515-3.364,7.515-7.515C471.922,211.771,468.558,208.407,464.408,208.407z"/>
          <path d="M416.314,208.407h-16.031c-4.15,0-7.515,3.364-7.515,7.515c0,4.151,3.365,7.515,7.515,7.515h16.031
          c4.15,0,7.515-3.364,7.515-7.515C423.828,211.771,420.464,208.407,416.314,208.407z"/>
          <path d="M408.68,63.242c-2.935-2.934-7.693-2.934-10.627,0l-11.335,11.335c-2.935,2.936-2.935,7.693,0,10.628
          c1.467,1.467,3.39,2.2,5.313,2.2c1.923,0,3.846-0.733,5.313-2.2L408.68,73.87C411.614,70.935,411.614,66.177,408.68,63.242z"/>
          <path d="M374.672,97.252c-2.934-2.935-7.692-2.936-10.627-0.001l-11.336,11.335c-2.935,2.935-2.935,7.693,0,10.627
          c1.467,1.467,3.391,2.201,5.313,2.201c1.923,0,3.846-0.733,5.313-2.2l11.336-11.335
          C377.607,104.944,377.607,100.186,374.672,97.252z"/>
        </g>
    </symbol>
    <symbol id="certificate" viewBox="0 0 512 512">
        <g>
          <path d="m494.5 34.936h-477c-9.649 0-17.5 7.851-17.5 17.5v61.595c0 9.697 15 9.697 15 0v-61.595c0-1.378 1.121-2.5 2.5-2.5h477c1.379 0 2.5 1.122 2.5 2.5v365.739c0 1.378-1.121 2.5-2.5 2.5h-96.112v-15.606h75.434c4.143 0 7.5-3.358 7.5-7.5v-78.539c0-9.697-15-9.697-15 0v71.039h-67.934v-33.277c.244.021.49.042.721.063 6.226.547 13.97 1.228 19.335-4.147 5.359-5.369 4.681-13.121 4.136-19.35-.587-6.685.045-8.515 5.183-12.786 13.229-11 13.475-22.778 0-33.98-5.138-4.274-5.767-6.102-5.183-12.788 1.468-16.777-6.368-24.999-23.471-23.496-6.675.586-8.486-.048-12.742-5.187-10.983-13.26-22.769-13.505-33.956 0-4.256 5.138-6.066 5.775-12.741 5.187-16.789-1.475-24.97 6.405-23.472 23.496.584 6.687-.045 8.514-5.183 12.788-13.229 10.999-13.474 22.779 0 33.98 5.138 4.274 5.767 6.102 5.183 12.788-1.575 17.969 7.007 24.917 24.19 23.433v33.278h-294.709v-309.53h420.643v198.489c0 9.697 15 9.697 15 0v-205.989c0-4.142-3.357-7.5-7.5-7.5h-435.643c-4.143 0-7.5 3.358-7.5 7.5v324.528c0 4.142 3.357 7.5 7.5 7.5h302.209v15.606h-322.888c-1.379 0-2.5-1.122-2.5-2.5v-266.145c0-9.697-15-9.697-15 0v266.145c0 9.649 7.851 17.5 17.5 17.5h322.888v33.95c1.068 6.164 4.623 8.431 10.663 6.8l18.337-8.529 18.337 8.529c4.537 2.11 10.663-1.225 10.663-6.8v-33.95h96.112c9.649 0 17.5-7.851 17.5-17.5v-365.739c0-9.65-7.851-17.5-17.5-17.5zm-156.145 306.975c-7.508.661-7.872.259-7.216-7.245 1.008-11.517-1.641-18.237-10.536-25.631-6.086-5.061-6.085-5.85 0-10.911 8.895-7.394 11.545-14.114 10.536-25.63-.656-7.505-.292-7.903 7.216-7.246 11.518 1.015 18.229-1.654 25.606-10.561 5.041-6.084 5.812-6.084 10.853 0 7.379 8.907 14.088 11.572 25.606 10.561 7.509-.661 7.872-.259 7.216 7.245-1.008 11.517 1.641 18.236 10.536 25.63 6.085 5.061 6.088 5.852-.001 10.912-8.895 7.395-11.545 14.112-10.536 25.629.659 7.504.293 7.907-7.214 7.247-4.711-.414-10.055-.884-14.759 1.07-4.553 1.891-7.754 5.754-10.849 9.491-1.458 1.76-4.119 4.973-5.427 5.548-1.307-.575-3.968-3.788-5.426-5.548-3.095-3.736-6.295-7.6-10.849-9.491-4.854-1.48-9.773-1.837-14.756-1.07zm34.196 110.914c-2.006-.933-4.32-.933-6.326 0l-10.837 5.041v-92.349c3.559 3.913 7.95 7.546 14 7.546s10.441-3.632 14-7.545v92.348z"/><path d="m97.263 143.321h258.547c9.697 0 9.697-15 0-15h-258.547c-9.698 0-9.698 15 0 15z"/><path d="m422.237 181.439c0-4.142-3.357-7.5-7.5-7.5h-317.474c-9.697 0-9.697 15 0 15h317.475c4.142 0 7.499-3.358 7.499-7.5z"/><path d="m285.137 227.056c0-4.142-3.357-7.5-7.5-7.5h-180.374c-9.697 0-9.697 15 0 15h180.374c4.142 0 7.5-3.358 7.5-7.5z"/><path d="m186.651 331.598c-4.089.007-8.179.012-12.268.015-7.867.006-12.198-2.091-13.805-10.433-1.467-7.615-12.451-6.645-14.464 0-.891 2.943-5.391 11.368-9.322 10.679-2.083-.365-2.993-3.578-3.763-5.242-1.499-3.239-2.591-6.672-3.526-10.112-3.948-14.534-4.736-29.709-7.206-44.517-1.432-8.587-14.521-6.159-14.732 1.994-.672 25.971-4.918 51.586-14.164 75.929-3.431 9.033 11.064 12.939 14.464 3.988 3.565-9.386 6.395-18.997 8.591-28.751 1.178 3.554 2.583 7.04 4.298 10.431 4.38 8.656 13.313 13.777 22.871 9.927 3.411-1.374 6.523-3.776 9.172-6.699 7.096 8.183 17.653 7.812 27.502 7.8 14.847-.019 29.694-.054 44.542-.095 9.651-.027 9.669-15.027 0-15-12.73.036-25.46.065-38.19.086z"/><path d="m369.388 332.874c16.153 0 29.295-13.141 29.295-29.294s-13.142-29.294-29.295-29.294c-16.152 0-29.294 13.142-29.294 29.294s13.141 29.294 29.294 29.294zm0-43.588c7.882 0 14.295 6.413 14.295 14.294s-6.413 14.294-14.295 14.294-14.294-6.412-14.294-14.294 6.412-14.294 14.294-14.294z"/>
        </g>
    </symbol>
    <symbol id="student" viewBox="0 0 512 512">
        <g>
          <path d="m255.984 402.982c-4.143 0-7.5 3.358-7.5 7.5v25.25c0 4.142 3.357 7.5 7.5 7.5s7.5-3.358 7.5-7.5v-25.25c0-4.142-3.358-7.5-7.5-7.5z"/><path d="m85.835 511.98h340.31c12.007 0 21.774-9.768 21.774-21.775v-22.5c0-4.142-3.357-7.5-7.5-7.5s-7.5 3.358-7.5 7.5v22.5c0 3.736-3.039 6.775-6.774 6.775h-41.341v-65.915c0-4.142-3.357-7.5-7.5-7.5s-7.5 3.358-7.5 7.5v65.915h-227.628v-65.915c0-4.142-3.357-7.5-7.5-7.5s-7.5 3.358-7.5 7.5v65.915h-41.341c-3.735 0-6.774-3.039-6.774-6.775v-69.654c0-28.913 20.51-47.874 34.334-53.592 5.186-2.025 48.911-19.102 55.741-21.77 3.83 6.784 69.894 123.792 72.806 128.949 6.176 10.939 21.92 10.945 28.099-.002 3.185-5.642 69.525-123.186 72.696-128.805 57.214 22.158 55.853 21.477 59.027 23.092 15.508 8.083 31.155 27.336 31.155 52.128v12.154c0 4.142 3.357 7.5 7.5 7.5s7.5-3.358 7.5-7.5v-12.154c0-33.205-21.129-56-39.287-65.464-4.453-2.266-19.216-7.764-30.078-11.971 25.249-23.182 19.329-68.494-.815-78.88-9.064-4.673-17.913-10.552-20.854-31.939 3.724-3.323 6.642-7.314 8.617-11.695-.46 10.578 7.975 19.937 19.142 19.937h21.175c12.553 0 21.715-11.859 18.53-24.013l-8.696-33.176c1.874-3.361 2.946-7.227 2.946-11.34 0-10.261-6.652-18.992-15.867-22.125v-69.254c0-.021-.003-.041-.003-.062-.022-6.515-3.648-12.371-9.476-15.292 0 0 0 0-.001 0l-124.105-62.181c-8.238-4.128-18.075-4.126-26.313 0l-124.106 62.181c-5.848 2.93-9.479 8.813-9.479 15.354s3.633 12.423 9.48 15.354l33.741 16.906v44.542 17.588c0 2.758.415 5.443 1.177 7.995-4.53 3.629-10.141 13.244-10.141 23.896 0 9.605 4.219 18.808 11.586 25.382-2.743 20.814-10.733 27.151-20.913 32.4-20.042 10.333-25.991 55.24-1.206 78.516l-25.103 9.804c-.042.016-.084.033-.126.05-21.039 8.658-43.684 33.471-43.684 67.487v69.654c.001 12.007 9.768 21.775 21.775 21.775zm126.72-120.4-29.305-51.903 27.305-10.664 23.336 32.67c2.97 4.158 3.179 9.595.534 13.852-5.078 8.171-12.496 13.629-21.87 16.045zm-20.048-159.426v-21.494c20.612 7.396 42.047 10.981 63.482 10.981 21.476 0 42.909-3.599 63.483-10.981v20.805c0 33.376-26.532 61.609-59.775 63.092-37.858 1.684-67.19-27.335-67.19-62.403zm-18.601-46.159c-.031-.017-.063-.032-.094-.049-3.716-2.004-6.342-6.105-6.342-10.925v-4.647c22.094 10.762 45.72 17.32 70.354 19.516 4.103.372 7.769-2.678 8.137-6.804.367-4.126-2.679-7.769-6.805-8.136-25.261-2.251-49.375-9.462-71.686-21.426v-33.117l75.363 37.76c7.929 3.974 17.821 4.255 26.313 0l75.363-37.76v33.117c-22.31 11.963-46.425 19.175-71.687 21.426-4.126.368-7.172 4.01-6.805 8.136s4.02 7.175 8.137 6.804c24.633-2.195 48.262-8.754 70.354-19.516v4.647c0 4.249-2.047 7.916-5.018 10.09-.002.001-.004.003-.006.004-1 .731-35.572 21.527-83.496 21.527-27.995-.001-56.492-6.868-82.082-20.647zm3.601 18.544v22.035c-10.443-1.193-19.002-9.296-19.002-19.663 0-3.882 1.26-7.676 3.588-10.902 3.669 3.108 10.64 6.335 15.414 8.53zm172.38-8.53c2.327 3.225 3.587 7.019 3.587 10.903 0 10.32-8.564 18.519-19.002 19.664v-22.036c4.451-2.043 11.797-5.462 15.415-8.531zm-86.716 184.346c-4.573 1.877-9.787 1.873-14.356-.011 4.03-8.842 3.089-19.25-2.716-27.379l-23.658-33.121c.649-1.564 1.094-3.671 1.094-5.664v-11.401c18.904 8.28 43.151 9.89 64.861.054l.009 11.412v.001.002c.006 1.819.381 3.824 1.122 5.616l-23.643 33.101c-5.812 8.132-6.75 18.546-2.713 27.39zm-6.193 86.407c-.438.78-1.537.778-1.974.001l-34.879-61.776c7.739-2.648 14.322-6.781 19.771-12.292 9.95 5.363 22.246 5.367 32.198.01 5.66 5.748 12.625 9.904 19.75 12.279zm42.434-75.185c-13.982-3.592-29.713-18.151-21.325-29.893l23.158-32.421 27.357 10.594zm71.451-114.009c11.088 5.717 16.733 45.304-8.906 59.12l-58.554-22.676v-.032l-.007-20.114c16.143-12.289 27.5-30.712 30.397-52.183 2.957-.147 6.242-.693 9.245-1.611 4.478 20.957 13.398 30.057 27.825 37.496zm38.976-57.24c.69 2.638-1.289 5.21-4.021 5.21h-21.175c-2.728 0-4.712-2.572-4.02-5.21l6.885-26.269c2.419.85 5.016 1.317 7.721 1.317 2.706 0 5.304-.468 7.723-1.317zm-14.608-56.686c4.614 0 8.368 3.754 8.368 8.368 0 4.689-4.004 8.326-8.293 8.363-4.074.078-8.442-3.379-8.442-8.363-.001-4.614 3.753-8.368 8.367-8.368zm-7.499-13.758c-9.216 3.132-15.868 11.864-15.868 22.126 0 4.114 1.073 7.98 2.947 11.341l-6.354 24.242c.196-9.581-4.13-19.375-10.117-24.595.758-2.546 1.171-5.226 1.171-7.977v-17.588-44.542l28.222-14.14v51.133zm-262.285-67.31c-.991-.497-1.199-1.331-1.199-1.943s.208-1.447 1.199-1.943l124.104-62.181c4.02-2.014 8.831-2.026 12.876 0l113.014 56.624h-96.82c-3.152-9.485-12.103-16.347-22.633-16.347-13.149 0-23.847 10.698-23.847 23.847s10.697 23.847 23.847 23.847c10.529 0 19.481-6.862 22.633-16.347h96.819l-26.787 13.421c-.001 0-.002.001-.004.001l-86.223 43.201c-4.03 2.019-8.844 2.02-12.876 0l-86.223-43.201c-.001 0-.002-.001-.004-.001zm139.39-1.943c0 4.878-3.969 8.847-8.848 8.847-4.878 0-8.847-3.969-8.847-8.847s3.969-8.847 8.847-8.847c4.879 0 8.848 3.968 8.848 8.847zm-123.784 197.394c14.562-7.509 23.543-16.755 27.93-37.94 2.962.901 6.299 1.449 9.124 1.595 2.62 21.457 13.927 40.151 30.425 52.399l-.002 19.621c-6.881 2.687-52.628 20.555-59.172 23.111-24.761-13.993-19.501-53.014-8.305-58.786z"/>
        </g>
    </symbol>
    <symbol id="arrow" viewBox="0 0 492.004 492.004">
        <g>    
          <path d="M382.678,226.804L163.73,7.86C158.666,2.792,151.906,0,144.698,0s-13.968,2.792-19.032,7.86l-16.124,16.12
          c-10.492,10.504-10.492,27.576,0,38.064L293.398,245.9l-184.06,184.06c-5.064,5.068-7.86,11.824-7.86,19.028
          c0,7.212,2.796,13.968,7.86,19.04l16.124,16.116c5.068,5.068,11.824,7.86,19.032,7.86s13.968-2.792,19.032-7.86L382.678,265
          c5.076-5.084,7.864-11.872,7.848-19.088C390.542,238.668,387.754,231.884,382.678,226.804z"/>
        </g>
    </symbol>
    <symbol id="up-arrow" viewBox="0 0 512 512">
        <g>    
          	<path d="M256,0C114.833,0,0,114.833,0,256s114.833,256,256,256s256-114.853,256-256S397.167,0,256,0z M256,472.341
			      c-119.275,0-216.341-97.046-216.341-216.341S136.725,39.659,256,39.659c119.295,0,216.341,97.046,216.341,216.341
			      S375.275,472.341,256,472.341z"/>
            <path d="M369.227,283.365l-99.148-99.148c-7.734-7.694-20.226-7.694-27.96,0l-99.148,99.148c-6.365,7.416-6.365,18.382,0,25.798
			      c7.119,8.309,19.651,9.28,27.96,2.161L256,226.256l85.267,85.069c7.734,7.694,20.226,7.694,27.96,0
			      C376.921,303.591,376.921,291.098,369.227,283.365z"/>
        </g>
    </symbol>
</svg>